<?xml version="1.0" standalone="no"?>
<!DOCTYPE svg PUBLIC "-//W3C//DTD SVG 20010904//EN"
 "http://www.w3.org/TR/2001/REC-SVG-20010904/DTD/svg10.dtd">
<svg version="1.0" xmlns="http://www.w3.org/2000/svg"
 width="512.000000pt" height="512.000000pt" viewBox="0 0 512.000000 512.000000"
 preserveAspectRatio="xMidYMid meet">

<g transform="translate(0.000000,512.000000) scale(0.100000,-0.100000)"
fill="#DB1F48" stroke="none">
<path d="M1175 5105 c-244 -38 -446 -135 -592 -283 -101 -103 -168 -224 -211
-380 l-27 -97 0 -1700 0 -1700 23 -56 c45 -112 128 -179 250 -200 l60 -11 4
-206 c5 -240 16 -285 93 -370 66 -73 125 -96 250 -97 90 0 106 3 157 28 66 33
112 80 145 153 34 74 43 145 43 332 l0 162 1190 0 1190 0 0 -162 c0 -187 9
-258 43 -332 33 -73 79 -120 145 -153 51 -25 68 -28 157 -28 113 0 173 20 233
78 88 84 112 172 112 419 l0 177 58 11 c149 31 244 117 271 248 15 71 15 3278
1 3407 -30 256 -133 469 -288 590 -115 91 -248 146 -410 170 -133 20 -2770 20
-2897 0z m2534 -510 c33 -16 41 -33 41 -80 0 -24 -7 -39 -26 -54 -27 -21 -29
-21 -1164 -21 -1135 0 -1137 0 -1164 21 -44 35 -34 108 19 137 14 8 349 11
1143 12 966 0 1127 -2 1151 -15z m526 -519 c69 -27 145 -105 176 -181 l24 -60
0 -590 0 -590 -23 -57 c-31 -76 -98 -149 -164 -179 l-53 -24 -1635 0 -1635 0
-53 24 c-66 30 -133 103 -164 179 -23 57 -23 60 -26 602 -2 367 1 566 8 609
26 152 113 248 250 278 42 9 440 11 1650 10 1548 -2 1596 -3 1645 -21z m-3130
-2381 c113 -29 203 -111 241 -217 20 -58 19 -174 -2 -229 -54 -137 -170 -219
-314 -222 -117 -1 -226 54 -288 149 -42 63 -56 114 -55 201 0 61 5 83 32 137
47 95 117 152 223 180 69 19 92 19 163 1z m3057 4 c72 -16 122 -42 173 -94
135 -134 135 -345 2 -479 -96 -95 -243 -126 -371 -77 -79 31 -155 111 -190
200 -21 55 -22 171 -2 229 37 104 127 187 236 216 68 18 86 19 152 5z"/>
</g>
</svg>
