<?xml version="1.0" standalone="no"?>
<!DOCTYPE svg PUBLIC "-//W3C//DTD SVG 20010904//EN"
 "http://www.w3.org/TR/2001/REC-SVG-20010904/DTD/svg10.dtd">
<svg version="1.0" xmlns="http://www.w3.org/2000/svg"
 width="512.000000pt" height="512.000000pt" viewBox="0 0 512.000000 512.000000"
 preserveAspectRatio="xMidYMid meet">

<g transform="translate(0.000000,512.000000) scale(0.100000,-0.100000)"
fill="#DB1F48" stroke="none">
<path d="M2330 5109 c-305 -29 -646 -126 -910 -259 -273 -138 -559 -356 -755
-576 -384 -432 -602 -931 -655 -1499 -41 -446 55 -949 260 -1355 138 -273 356
-559 576 -755 432 -384 931 -602 1499 -655 446 -41 949 55 1355 260 273 138
559 356 755 576 384 432 602 931 655 1499 41 446 -55 949 -260 1355 -138 273
-356 559 -576 755 -432 384 -931 602 -1499 655 -125 11 -320 11 -445 -1z m673
-910 c415 -62 750 -354 865 -754 175 -606 -232 -1230 -865 -1324 -42 -7 -241
-11 -482 -11 l-411 0 0 -600 0 -600 -300 0 -300 0 0 1650 0 1650 711 0 c455 0
736 -4 782 -11z"/>
<path d="M2110 3160 l0 -450 389 0 c222 0 411 4 442 10 186 35 330 184 361
374 38 231 -126 461 -361 506 -31 6 -220 10 -442 10 l-389 0 0 -450z"/>
</g>
</svg>
