<?xml version="1.0" standalone="no"?>
<!DOCTYPE svg PUBLIC "-//W3C//DTD SVG 20010904//EN"
 "http://www.w3.org/TR/2001/REC-SVG-20010904/DTD/svg10.dtd">
<svg version="1.0" xmlns="http://www.w3.org/2000/svg"
 width="497.000000pt" height="500.000000pt" viewBox="0 0 497.000000 500.000000"
 preserveAspectRatio="xMidYMid meet">

<g transform="translate(0.000000,500.000000) scale(0.100000,-0.100000)"
fill="#000000" stroke="none">
<path d="M3914 4950 c-12 -5 -82 -64 -155 -132 -74 -68 -276 -253 -449 -412
-373 -341 -370 -338 -370 -374 0 -64 78 -109 136 -79 16 9 204 177 418 374
213 197 401 364 418 371 18 8 40 9 58 5 18 -5 175 -142 426 -373 218 -201 406
-370 418 -377 69 -40 161 25 142 100 -3 12 -98 107 -211 210 l-205 188 0 155
c0 151 -1 156 -25 179 -30 31 -92 34 -126 6 -20 -16 -25 -31 -29 -94 l-5 -75
-174 160 c-196 179 -213 190 -267 168z"/>
<path d="M3578 4253 l-347 -318 0 -322 c-1 -309 0 -323 18 -333 12 -6 112 -10
254 -10 214 0 235 2 250 18 15 16 17 45 17 198 0 127 4 184 12 192 8 8 60 12
168 12 108 0 160 -4 168 -12 8 -8 12 -66 12 -193 0 -164 2 -184 18 -198 16
-15 49 -17 255 -17 201 0 238 2 251 16 14 13 16 57 15 332 l-1 317 -67 60
c-36 33 -193 176 -349 318 -194 177 -289 257 -305 257 -16 0 -128 -97 -369
-317z"/>
<path d="M2486 4286 c-58 -22 -108 -67 -139 -127 -26 -48 -28 -62 -25 -125 6
-88 38 -149 103 -194 94 -64 210 -63 298 5 145 111 124 344 -38 427 -51 26
-147 33 -199 14z m137 -176 c33 -26 41 -63 22 -100 -20 -39 -49 -53 -91 -46
-64 13 -87 94 -39 141 30 31 73 32 108 5z"/>
<path d="M1484 4111 c-60 -17 -147 -62 -159 -81 -6 -10 81 -130 94 -130 3 0
28 11 54 25 27 13 69 27 94 31 39 6 44 9 39 28 -3 11 -6 49 -6 84 0 61 0 62
-27 61 -16 0 -55 -8 -89 -18z"/>
<path d="M1860 4045 l0 -85 125 0 125 0 0 85 0 85 -125 0 -125 0 0 -85z"/>
<path d="M1145 3760 c-13 -22 -17 -157 -6 -210 18 -84 17 -83 101 -50 72 27
75 30 70 57 -3 15 -5 61 -5 101 l0 72 -40 11 c-22 5 -53 14 -69 19 -37 13 -43
12 -51 0z"/>
<path d="M1396 3304 c-44 -66 -45 -68 -25 -82 28 -19 211 -93 222 -89 13 4 67
141 59 149 -4 3 -47 23 -97 43 -49 20 -95 39 -102 42 -6 2 -32 -26 -57 -63z"/>
<path d="M1892 3172 c-28 -56 -54 -134 -46 -141 16 -14 215 -91 223 -87 9 6
65 146 60 150 -2 2 -55 24 -116 49 -101 41 -114 44 -121 29z"/>
<path d="M2361 2977 c-5 -12 -19 -46 -30 -76 -12 -29 -20 -55 -18 -57 12 -13
223 -92 228 -86 8 8 59 132 59 143 0 6 -33 21 -183 80 l-48 19 -8 -23z"/>
<path d="M2831 2789 c-5 -13 -19 -48 -30 -78 -12 -29 -20 -55 -19 -56 3 -3 48
-21 224 -92 15 -5 70 145 58 156 -5 4 -52 25 -104 46 -52 20 -101 39 -107 42
-7 3 -17 -6 -22 -18z"/>
<path d="M3306 2611 c-11 -17 -57 -143 -54 -146 12 -12 224 -92 230 -87 7 8
58 132 58 143 0 4 -48 26 -107 50 -59 24 -110 45 -114 47 -4 2 -10 -1 -13 -7z"/>
<path d="M3755 2358 c-16 -40 -28 -75 -28 -77 1 -3 53 -26 117 -52 l115 -47
25 66 c14 37 26 73 28 80 2 8 -38 30 -105 57 -59 25 -111 45 -116 45 -4 0 -21
-33 -36 -72z"/>
<path d="M4227 2172 c-15 -37 -27 -72 -27 -78 0 -6 26 -21 58 -33 31 -13 76
-34 100 -47 l42 -23 50 60 c28 33 50 64 50 69 0 5 -19 20 -43 34 -41 24 -182
86 -197 86 -4 0 -19 -30 -33 -68z"/>
<path d="M2505 2016 c-44 -13 -126 -36 -183 -51 -92 -25 -105 -31 -118 -58
-19 -35 -13 -95 17 -170 11 -27 18 -51 17 -52 -3 -2 -197 -40 -403 -79 -337
-64 -426 -79 -435 -70 -7 7 -36 86 -67 177 -5 16 3 17 87 15 89 -3 92 -2 116
25 38 45 25 120 -26 147 -9 5 -118 16 -243 25 l-227 16 -30 -21 c-43 -30 -53
-77 -28 -127 13 -27 30 -35 93 -42 l49 -6 52 -153 52 -153 -99 -99 -98 -100
-48 30 c-181 112 -462 103 -636 -21 -130 -93 -205 -201 -252 -363 -23 -78 -16
-225 14 -316 64 -190 217 -339 408 -396 39 -12 94 -18 168 -18 95 -1 120 3
187 26 178 63 321 203 374 368 21 63 22 65 55 64 19 -1 99 -5 179 -9 134 -7
147 -6 167 11 19 17 144 161 208 239 13 17 61 73 105 125 91 106 125 146 155
183 92 112 210 247 215 247 4 0 15 -27 25 -61 9 -34 25 -80 34 -103 10 -22 21
-55 24 -73 5 -28 2 -34 -26 -51 -18 -10 -62 -46 -98 -79 -210 -197 -245 -515
-85 -767 41 -63 138 -150 217 -193 185 -103 422 -94 604 22 128 82 239 239
265 374 75 399 -219 749 -613 730 l-74 -4 -97 288 c-54 159 -94 293 -89 297 4
4 53 19 108 34 121 33 125 35 149 75 21 37 16 68 -17 105 -31 36 -61 38 -152
12z m-463 -648 c-99 -115 -312 -366 -332 -392 -8 -10 -27 -32 -42 -48 -16 -16
-28 -33 -28 -38 0 -6 -4 -10 -9 -10 -5 0 -22 42 -39 93 -17 50 -47 137 -67
192 -44 119 -56 168 -47 176 7 7 124 30 342 69 69 13 163 30 210 40 47 9 87
16 88 14 2 -1 -32 -44 -76 -96z m-716 -209 c15 -41 46 -130 71 -199 25 -69 47
-134 50 -145 l4 -20 -273 18 c-150 11 -274 20 -276 22 -1 1 86 93 195 203 108
111 198 200 200 198 2 -1 15 -36 29 -77z m-484 -30 l57 -24 -154 -156 c-148
-148 -155 -157 -155 -195 1 -79 25 -90 230 -104 91 -6 184 -13 208 -16 40 -5
42 -7 36 -32 -17 -73 -114 -176 -213 -225 -62 -30 -73 -32 -171 -32 -96 0
-111 3 -165 29 -37 18 -86 55 -126 95 -87 88 -114 156 -114 291 0 90 2 99 37
168 55 107 136 180 238 213 79 26 215 21 292 -12z m2022 -141 c107 -46 177
-119 223 -233 29 -72 34 -111 24 -192 -18 -141 -105 -260 -236 -324 -65 -32
-77 -34 -170 -34 -55 0 -115 6 -133 12 -43 16 -140 81 -175 118 -46 48 -94
157 -101 228 -17 152 60 319 180 390 7 4 35 -67 80 -199 75 -223 82 -234 154
-234 38 0 90 47 90 82 0 13 -21 82 -46 153 -25 72 -50 147 -55 169 -5 21 -17
52 -25 68 l-16 31 74 -5 c46 -3 94 -14 132 -30z"/>
<path d="M4576 1841 l-59 -17 -2 -85 c-1 -46 -4 -91 -8 -99 -10 -21 142 -77
154 -58 24 38 35 163 23 241 -8 43 -17 45 -108 18z"/>
<path d="M3166 1575 c-141 -50 -210 -219 -143 -352 92 -182 341 -190 444 -15
24 41 28 58 28 127 0 69 -4 86 -27 126 -62 105 -191 154 -302 114z m139 -180
c52 -51 16 -145 -54 -145 -77 0 -115 97 -57 146 36 31 80 31 111 -1z"/>
<path d="M4328 1448 c-21 -11 -62 -22 -93 -25 l-55 -6 0 -85 0 -85 64 6 c67 6
162 35 202 62 l24 15 -47 70 c-25 39 -49 69 -52 69 -3 -1 -23 -10 -43 -21z"/>
<path d="M3670 1335 l0 -85 130 0 130 0 0 85 0 85 -130 0 -130 0 0 -85z"/>
</g>
</svg>
