<?xml version="1.0" standalone="no"?>
<!DOCTYPE svg PUBLIC "-//W3C//DTD SVG 20010904//EN"
 "http://www.w3.org/TR/2001/REC-SVG-20010904/DTD/svg10.dtd">
<svg version="1.0" xmlns="http://www.w3.org/2000/svg"
 width="497.000000pt" height="500.000000pt" viewBox="0 0 497.000000 500.000000"
 preserveAspectRatio="xMidYMid meet">

<g transform="translate(0.000000,500.000000) scale(0.100000,-0.100000)"
fill="#000000" stroke="none">
<path d="M2230 4983 c-435 -43 -882 -220 -1245 -492 -126 -95 -334 -297 -435
-422 -291 -361 -464 -768 -532 -1254 -17 -117 -17 -493 0 -610 69 -488 243
-896 537 -1260 98 -121 307 -323 430 -416 262 -196 550 -337 865 -422 168 -46
468 -87 635 -87 171 0 408 32 605 80 395 98 794 314 1081 587 96 92 107 118
71 164 -36 44 -70 31 -178 -66 -366 -327 -771 -519 -1249 -591 -167 -25 -494
-25 -660 0 -487 74 -889 266 -1257 599 -345 312 -611 781 -702 1239 -35 173
-46 291 -46 487 0 372 75 694 239 1026 182 366 458 683 786 902 611 409 1356
511 2047 281 210 -69 359 -142 556 -272 92 -60 121 -84 116 -96 -39 -89 -41
-194 -5 -276 l22 -48 -96 -96 c-81 -81 -95 -100 -95 -128 0 -40 30 -72 68 -72
21 0 48 21 122 96 102 102 97 100 175 70 52 -20 152 -20 210 0 58 19 57 20
140 -105 201 -304 334 -670 375 -1036 15 -135 12 -417 -5 -552 -34 -254 -102
-486 -208 -706 -73 -151 -120 -231 -218 -369 -42 -59 -69 -107 -69 -122 0 -35
33 -66 71 -66 41 0 69 31 174 190 218 328 339 654 397 1065 19 136 16 504 -5
645 -60 392 -200 752 -413 1062 l-75 110 28 56 c39 79 40 191 2 272 -34 72
-89 126 -167 162 -56 27 -70 30 -145 27 -64 -3 -93 -10 -131 -30 l-49 -26 -81
58 c-310 223 -721 382 -1119 434 -107 14 -459 19 -567 8z m2062 -618 c105 -70
103 -232 -4 -302 -87 -58 -211 -25 -258 67 -36 71 -19 172 38 223 57 51 157
56 224 12z"/>
<path d="M2276 4499 c-591 -62 -1126 -387 -1458 -884 -394 -590 -446 -1345
-138 -1984 210 -434 573 -781 1020 -973 181 -78 328 -116 607 -157 172 -26
444 -2 679 59 636 164 1151 625 1379 1234 106 286 159 657 124 889 -40 276
-78 424 -154 601 -69 161 -153 305 -262 449 -36 46 -50 57 -73 57 -28 0 -40
-15 -40 -49 0 -9 32 -62 71 -117 124 -174 198 -314 262 -500 211 -608 103
-1269 -291 -1789 -61 -80 -220 -243 -307 -315 -103 -85 -246 -175 -370 -235
-749 -362 -1622 -208 -2201 386 -155 161 -257 304 -349 494 -318 653 -241
1414 203 2000 25 33 91 107 146 164 163 167 332 290 531 386 640 310 1374 246
1952 -169 51 -36 99 -66 107 -66 22 0 49 45 42 68 -13 39 -226 179 -400 263
-329 159 -716 226 -1080 188z"/>
<path d="M2235 4004 c-633 -112 -1123 -597 -1241 -1229 -25 -134 -25 -400 -1
-535 101 -547 489 -994 1016 -1170 171 -58 276 -74 476 -75 125 0 196 5 270
19 634 118 1121 613 1230 1250 20 115 20 362 0 486 -31 194 -117 417 -226 585
-61 93 -107 145 -130 145 -32 0 -22 -38 30 -109 323 -445 373 -1030 129 -1514
-126 -251 -329 -467 -572 -610 -260 -151 -595 -222 -886 -187 -340 41 -633
183 -870 420 -375 374 -516 913 -374 1420 111 393 384 724 751 908 310 157
680 195 1022 106 172 -45 356 -133 496 -238 46 -35 63 -42 77 -35 30 16 21 36
-34 80 -169 133 -435 247 -668 284 -119 19 -385 18 -495 -1z"/>
<path d="M3327 3452 c-137 -137 -157 -161 -157 -189 0 -20 8 -40 22 -53 44
-41 61 -30 230 137 140 140 158 161 158 190 0 41 -30 73 -68 73 -22 0 -57 -30
-185 -158z"/>
<path d="M2454 3340 c-12 -4 -82 -64 -155 -132 -74 -68 -276 -253 -449 -412
-373 -341 -370 -338 -370 -374 0 -64 78 -109 136 -79 16 9 204 177 418 374
213 197 401 364 418 371 18 8 40 9 58 5 18 -5 175 -142 426 -373 218 -201 406
-370 418 -377 69 -40 161 25 142 100 -3 12 -98 107 -211 210 l-205 188 0 155
c0 151 -1 156 -25 179 -18 19 -35 25 -65 25 -65 0 -90 -32 -90 -115 0 -38 -4
-65 -9 -63 -6 2 -79 66 -162 143 -84 77 -163 148 -175 158 -28 21 -72 29 -100
17z"/>
<path d="M2118 2643 l-347 -318 0 -322 c-1 -309 0 -323 18 -333 12 -6 112 -10
254 -10 214 0 235 2 250 18 15 16 17 45 17 198 0 127 4 184 12 192 8 8 60 12
168 12 108 0 160 -4 168 -12 8 -8 12 -66 12 -193 0 -164 2 -184 18 -198 16
-15 49 -17 255 -17 201 0 238 2 251 16 14 13 16 57 15 332 l-1 317 -67 60
c-36 33 -193 176 -349 318 -194 177 -289 257 -305 257 -16 0 -128 -97 -369
-317z"/>
</g>
</svg>
