<?xml version="1.0" standalone="no"?>
<!DOCTYPE svg PUBLIC "-//W3C//DTD SVG 20010904//EN"
 "http://www.w3.org/TR/2001/REC-SVG-20010904/DTD/svg10.dtd">
<svg version="1.0" xmlns="http://www.w3.org/2000/svg"
 width="512.000000pt" height="512.000000pt" viewBox="0 0 512.000000 512.000000"
 preserveAspectRatio="xMidYMid meet">

<g transform="translate(0.000000,512.000000) scale(0.100000,-0.100000)" fill="#0c1f26" stroke="none">
<path d="M2477 5106 c-83 -31 -147 -103 -166 -186 -6 -25 -11 -109 -11 -187
l0 -142 -47 -6 c-335 -47 -714 -215 -983 -435 -372 -304 -632 -739 -721 -1206
l-23 -122 -166 -4 c-177 -5 -207 -12 -268 -63 -18 -15 -45 -48 -60 -74 -23
-39 -27 -57 -27 -121 0 -64 4 -82 27 -121 15 -26 42 -59 60 -74 61 -51 91 -58
268 -63 l166 -4 23 -122 c89 -466 349 -902 721 -1206 268 -220 649 -388 983
-435 l47 -6 0 -139 c0 -77 5 -162 11 -190 14 -64 60 -125 124 -165 43 -26 57
-30 124 -30 65 0 83 4 122 27 26 15 59 42 74 60 51 61 58 91 63 268 l4 166
122 23 c629 120 1175 538 1457 1116 86 178 159 409 183 586 l7 47 167 4 c179
5 209 12 270 63 18 15 45 48 60 74 23 39 27 57 27 121 0 64 -4 82 -27 121 -15
26 -42 59 -60 74 -61 51 -91 58 -270 63 l-167 4 -7 47 c-24 177 -97 408 -183
586 -171 350 -443 650 -781 858 -184 113 -460 218 -679 259 l-119 22 -4 165
c-5 178 -12 208 -63 269 -64 76 -189 111 -278 78z m328 -1031 c471 -73 892
-376 1114 -806 100 -193 153 -375 171 -594 22 -281 -36 -565 -171 -824 -346
-668 -1128 -984 -1845 -746 -456 151 -818 513 -969 969 -106 320 -106 653 1
975 150 453 511 814 965 965 243 81 476 100 734 61z"/>
<path d="M2387 3570 c-209 -38 -412 -146 -558 -297 -127 -131 -199 -256 -256
-439 -25 -83 -27 -101 -27 -274 0 -173 2 -191 27 -274 59 -191 145 -334 278
-461 129 -123 257 -197 436 -252 82 -25 100 -27 273 -27 173 0 191 2 274 27
183 57 308 129 439 256 129 124 216 271 274 458 25 82 27 100 27 273 0 173 -2
191 -27 273 -92 298 -289 531 -552 653 -143 66 -233 86 -405 90 -85 1 -177 -1
-203 -6z m296 -515 c229 -60 387 -262 387 -495 0 -280 -230 -510 -510 -510
-280 0 -510 230 -510 510 0 231 157 434 383 495 69 18 179 19 250 0z"/>
</g>
</svg>
