<?xml version="1.0" standalone="no"?>
<!DOCTYPE svg PUBLIC "-//W3C//DTD SVG 20010904//EN"
 "http://www.w3.org/TR/2001/REC-SVG-20010904/DTD/svg10.dtd">
<svg version="1.0" xmlns="http://www.w3.org/2000/svg"
 width="497.000000pt" height="500.000000pt" viewBox="0 0 497.000000 500.000000"
 preserveAspectRatio="xMidYMid meet">

<g transform="translate(0.000000,500.000000) scale(0.100000,-0.100000)"
fill="#000000" stroke="none">
<path d="M690 4351 c-93 -30 -183 -109 -227 -198 -23 -47 -26 -67 -26 -151 0
-81 4 -107 25 -158 l25 -62 -37 -6 c-48 -7 -61 -24 -54 -67 3 -19 -4 -102 -16
-184 -20 -141 -27 -167 -125 -437 -59 -162 -105 -303 -105 -323 0 -48 137
-685 153 -707 21 -31 809 -518 838 -518 15 0 71 9 124 20 157 32 137 41 315
-135 180 -177 159 -169 325 -135 140 29 135 33 215 -184 59 -163 69 -182 112
-222 38 -36 79 -59 126 -69 45 -9 62 7 62 61 0 30 6 50 23 68 50 55 340 296
363 302 16 4 82 -10 182 -38 86 -25 163 -43 170 -40 7 2 18 25 25 49 22 82 28
85 330 117 262 29 267 29 288 10 11 -10 83 -122 159 -249 139 -231 163 -265
192 -265 22 0 48 33 48 60 0 13 -41 155 -90 316 -50 160 -90 301 -90 312 0 25
243 330 273 342 12 5 33 11 47 14 18 4 32 19 47 50 18 36 26 43 43 39 67 -18
188 86 245 210 49 107 115 308 115 350 0 64 -20 134 -57 194 -34 57 -35 60
-28 135 5 64 4 78 -10 90 -45 37 -55 50 -55 75 0 15 40 99 90 190 49 90 90
170 90 177 0 17 -87 89 -101 84 -6 -2 -38 -62 -71 -133 -32 -72 -68 -138 -80
-147 -16 -15 -40 -18 -129 -18 l-108 0 -28 -37 c-15 -20 -38 -47 -51 -60 l-22
-24 -213 3 c-191 3 -216 5 -252 24 -22 11 -78 40 -125 64 -101 52 -150 58
-292 36 l-98 -14 -67 36 -68 37 0 125 c0 112 -2 130 -25 175 -13 28 -47 72
-74 99 -106 103 -233 128 -357 69 -106 -50 -189 -152 -205 -252 l-7 -41 -62 0
c-60 0 -63 -1 -94 -40 -31 -39 -34 -40 -94 -40 -96 1 -172 14 -616 107 -250
53 -422 93 -434 103 -11 9 -22 34 -26 56 -5 28 -12 40 -26 42 -11 2 -37 8 -57
13 l-37 10 33 62 c57 104 71 160 71 277 0 126 -19 178 -93 253 -69 71 -130
100 -222 103 -41 2 -86 0 -100 -5z m205 -79 c47 -24 106 -83 131 -132 11 -22
19 -66 22 -115 4 -67 0 -93 -22 -160 -15 -44 -45 -110 -66 -146 -21 -36 -42
-77 -45 -91 -4 -15 -30 -51 -59 -82 -85 -92 -122 -78 -242 90 -29 40 -50 83
-55 108 -4 22 -20 70 -35 106 -37 87 -40 200 -6 275 36 79 104 141 182 166 43
14 152 4 195 -19z m2000 -626 c66 -30 139 -111 154 -170 25 -101 3 -291 -44
-373 -42 -73 -122 -178 -161 -212 -50 -44 -78 -41 -131 17 -56 59 -162 219
-169 252 -2 14 -12 48 -22 75 -25 74 -22 196 6 260 67 148 231 215 367 151z
m-2153 -673 c137 -61 205 -219 164 -383 -32 -129 -151 -332 -236 -403 -50 -42
-76 -36 -141 33 -119 124 -207 305 -216 440 -6 87 5 138 46 201 78 123 246
172 383 112z m3842 -164 c48 -31 112 -127 132 -197 22 -76 14 -135 -36 -267
-55 -146 -84 -197 -150 -267 -83 -87 -126 -78 -220 47 -114 152 -163 273 -164
405 -1 136 50 221 167 280 58 30 68 31 149 28 71 -3 92 -8 122 -29z m-811
-455 c61 -21 132 -84 164 -148 70 -138 19 -345 -134 -552 -122 -164 -151 -164
-272 -4 -157 208 -209 417 -138 556 31 61 103 127 160 148 56 19 163 20 220 0z
m-1456 -95 c70 -34 106 -71 141 -147 22 -48 24 -64 20 -145 -4 -72 -11 -109
-36 -172 -58 -148 -208 -345 -262 -345 -29 0 -108 78 -167 166 -158 233 -181
443 -63 577 93 106 233 131 367 66z"/>
<path d="M700 4168 c-67 -34 -92 -84 -87 -171 4 -57 13 -85 50 -160 25 -51 59
-108 75 -127 l30 -35 22 20 c12 11 39 49 61 85 79 134 102 263 56 331 -24 37
-97 79 -137 79 -14 0 -46 -10 -70 -22z"/>
<path d="M2709 3537 c-18 -12 -44 -38 -57 -57 -36 -53 -28 -152 21 -255 43
-89 95 -165 114 -165 33 0 134 183 155 282 13 64 3 117 -34 163 -44 57 -140
72 -199 32z"/>
<path d="M555 2846 c-42 -18 -93 -79 -100 -120 -8 -40 9 -131 36 -193 24 -57
106 -183 118 -183 23 0 96 103 131 185 51 120 47 215 -12 272 -54 52 -113 65
-173 39z"/>
<path d="M4368 2679 c-104 -54 -103 -213 1 -389 43 -72 74 -105 90 -96 6 4 33
44 61 89 62 101 94 199 88 268 -12 120 -134 185 -240 128z"/>
<path d="M3586 2207 c-110 -62 -107 -207 6 -391 58 -94 71 -101 109 -56 44 51
108 186 120 252 17 95 -10 162 -81 198 -51 26 -105 25 -154 -3z"/>
<path d="M2092 2130 c-105 -64 -96 -227 22 -410 30 -46 52 -70 65 -70 23 0 90
100 127 191 16 37 29 91 31 129 4 56 2 70 -19 100 -53 78 -152 105 -226 60z"/>
</g>
</svg>
