<?xml version="1.0" standalone="no"?>
<!DOCTYPE svg PUBLIC "-//W3C//DTD SVG 20010904//EN"
 "http://www.w3.org/TR/2001/REC-SVG-20010904/DTD/svg10.dtd">
<svg version="1.0" xmlns="http://www.w3.org/2000/svg"
 width="512.000000pt" height="512.000000pt" viewBox="0 0 512.000000 512.000000"
 preserveAspectRatio="xMidYMid meet">

<g transform="translate(0.000000,512.000000) scale(0.100000,-0.100000)"
fill="#48BCD1" stroke="none">
<path d="M850 5109 c-33 -13 -78 -56 -98 -94 -15 -27 -17 -117 -20 -975 -3
-970 -2 -1010 35 -1085 29 -58 96 -136 157 -182 71 -53 208 -122 295 -148 l61
-19 2 -1165 3 -1166 27 -57 c37 -79 98 -142 177 -181 59 -29 74 -32 156 -32
82 0 97 3 156 32 79 39 140 102 177 181 l27 57 3 1165 3 1165 72 23 c173 55
327 158 404 270 78 114 74 51 71 1133 l-3 965 -27 41 c-31 46 -97 83 -149 83
-42 0 -107 -29 -136 -61 -49 -54 -48 -36 -53 -870 l-5 -786 -29 -37 c-77 -102
-231 -95 -298 12 l-23 37 -5 785 -5 785 -23 40 c-57 100 -185 126 -268 53 -73
-65 -68 -5 -74 -878 -5 -769 -5 -786 -26 -820 -68 -117 -240 -117 -308 0 -21
34 -21 51 -26 820 l-5 785 -23 40 c-32 57 -82 88 -145 92 -29 1 -63 -2 -77 -8z"/>
<path d="M4151 5100 c-593 -156 -1041 -1249 -1041 -2543 0 -118 3 -248 6 -290
l7 -77 268 0 269 0 2 -962 3 -963 29 -58 c36 -71 108 -140 184 -175 77 -36
210 -38 287 -3 106 48 181 136 210 246 13 53 15 323 15 2446 0 2167 -1 2387
-16 2393 -32 12 -151 4 -223 -14z"/>
</g>
</svg>
