<?xml version="1.0" standalone="no"?>
<!DOCTYPE svg PUBLIC "-//W3C//DTD SVG 20010904//EN"
 "http://www.w3.org/TR/2001/REC-SVG-20010904/DTD/svg10.dtd">
<svg version="1.0" xmlns="http://www.w3.org/2000/svg"
 width="512.000000pt" height="512.000000pt" viewBox="0 0 512.000000 512.000000"
 preserveAspectRatio="xMidYMid meet">

<g transform="translate(0.000000,512.000000) scale(0.100000,-0.100000)"
fill="#AB6B51" stroke="none">
<path d="M1375 4565 c-985 -323 -1174 -388 -1193 -410 -22 -26 -22 -31 -22
-291 0 -154 4 -273 10 -284 5 -10 24 -23 41 -29 45 -16 4653 -16 4698 0 17 6
36 19 41 29 6 11 10 130 10 284 0 260 0 265 -22 291 -20 22 -205 85 -1197 411
-645 211 -1179 384 -1185 383 -6 0 -537 -173 -1181 -384z"/>
<path d="M320 3329 c0 -28 4 -59 10 -69 12 -22 61 -40 111 -40 l39 0 0 -1120
0 -1120 -59 0 c-52 0 -62 -3 -80 -26 -15 -20 -21 -41 -21 -80 l0 -54 560 0
560 0 0 54 c0 39 -6 60 -21 80 -18 23 -28 26 -80 26 l-59 0 0 1120 0 1120 39
0 c50 0 99 18 111 40 6 10 10 41 10 69 l0 51 -560 0 -560 0 0 -51z"/>
<path d="M2000 3329 c0 -28 4 -59 10 -69 12 -22 61 -40 111 -40 l39 0 0 -1120
0 -1120 -59 0 c-52 0 -62 -3 -80 -26 -15 -20 -21 -41 -21 -80 l0 -54 560 0
560 0 0 54 c0 39 -6 60 -21 80 -18 23 -28 26 -80 26 l-59 0 0 1120 0 1120 39
0 c50 0 99 18 111 40 6 10 10 41 10 69 l0 51 -560 0 -560 0 0 -51z"/>
<path d="M3680 3329 c0 -28 4 -59 10 -69 12 -22 61 -40 111 -40 l39 0 0 -1120
0 -1120 -59 0 c-52 0 -62 -3 -80 -26 -15 -20 -21 -41 -21 -80 l0 -54 560 0
560 0 0 54 c0 39 -6 60 -21 80 -18 23 -28 26 -80 26 l-59 0 0 1120 0 1120 39
0 c50 0 99 18 111 40 6 10 10 41 10 69 l0 51 -560 0 -560 0 0 -51z"/>
<path d="M181 634 c-20 -25 -21 -40 -21 -211 0 -101 4 -193 10 -203 5 -10 24
-23 41 -29 45 -16 4653 -16 4698 0 17 6 36 19 41 29 6 10 10 102 10 203 0 171
-1 186 -21 211 l-20 26 -2359 0 -2359 0 -20 -26z"/>
</g>
</svg>
