<?xml version="1.0" standalone="no"?>
<!DOCTYPE svg PUBLIC "-//W3C//DTD SVG 20010904//EN"
 "http://www.w3.org/TR/2001/REC-SVG-20010904/DTD/svg10.dtd">
<svg version="1.0" xmlns="http://www.w3.org/2000/svg"
 width="512.000000pt" height="512.000000pt" viewBox="0 0 512.000000 512.000000"
 preserveAspectRatio="xMidYMid meet">

<g transform="translate(0.000000,512.000000) scale(0.100000,-0.100000)"
fill="#00778F" stroke="none">
<path d="M377 5110 c-177 -30 -337 -194 -367 -376 -13 -80 -13 -4268 0 -4348
30 -187 189 -346 376 -376 80 -13 4268 -13 4348 0 187 30 346 189 376 376 13
80 13 4268 0 4348 -30 187 -189 346 -376 376 -72 12 -4287 11 -4357 0z m1646
-934 c70 -29 67 -5 67 -606 l0 -540 470 0 470 0 0 544 0 544 28 30 c16 17 43
33 63 37 19 3 197 5 396 3 349 -3 363 -4 390 -24 15 -11 33 -36 40 -55 17 -49
17 -3049 0 -3098 -7 -19 -25 -44 -40 -55 -27 -20 -41 -21 -390 -24 -199 -2
-377 0 -396 3 -20 4 -47 20 -63 37 l-28 30 0 544 0 544 -470 0 -470 0 0 -544
0 -544 -28 -30 c-16 -17 -43 -33 -63 -37 -19 -3 -197 -5 -396 -3 -349 3 -363
4 -390 24 -15 11 -34 38 -41 59 -10 29 -12 356 -10 1564 3 1459 4 1528 21
1555 35 53 50 55 445 56 284 0 370 -3 395 -14z"/>
</g>
</svg>
