<?xml version="1.0" standalone="no"?>
<!DOCTYPE svg PUBLIC "-//W3C//DTD SVG 20010904//EN"
 "http://www.w3.org/TR/2001/REC-SVG-20010904/DTD/svg10.dtd">
<svg version="1.0" xmlns="http://www.w3.org/2000/svg"
 width="512.000000pt" height="512.000000pt" viewBox="0 0 512.000000 512.000000"
 preserveAspectRatio="xMidYMid meet">

<g transform="translate(0.000000,512.000000) scale(0.100000,-0.100000)"
fill="#76B947" stroke="none">
<path d="M1647 5105 c-98 -19 -207 -61 -299 -115 -84 -50 -215 -173 -268 -250
-91 -134 -150 -296 -165 -457 l-7 -71 -72 -27 c-209 -82 -328 -170 -426 -319
-51 -75 -79 -150 -96 -256 -35 -212 2 -380 128 -578 33 -52 58 -95 56 -96
-227 -165 -334 -281 -413 -447 -58 -123 -78 -214 -79 -369 -1 -165 16 -243 84
-386 133 -276 386 -459 696 -504 56 -8 372 -10 1074 -8 l995 3 80 23 c315 89
562 336 646 647 32 116 32 336 1 450 -59 212 -176 375 -377 523 -49 36 -91 67
-93 68 -2 1 23 44 56 96 126 198 165 375 128 583 -46 261 -203 442 -482 556
l-101 42 -7 77 c-32 382 -303 705 -671 801 -106 27 -284 34 -388 14z"/>
<path d="M3177 5110 c-124 -22 -289 -90 -374 -153 l-31 -23 58 -92 c65 -103
119 -231 146 -347 18 -77 18 -77 69 -102 215 -110 401 -305 485 -511 55 -136
74 -242 74 -407 -1 -162 -14 -241 -59 -361 -15 -38 -29 -77 -32 -86 -4 -13 18
-43 72 -100 241 -256 353 -580 317 -920 -30 -282 -135 -508 -336 -716 l-71
-73 430 3 c407 4 434 5 510 26 332 92 577 341 661 672 28 109 25 315 -5 425
-57 212 -175 375 -376 523 -49 36 -91 67 -93 68 -2 1 23 44 56 96 126 198 163
366 128 578 -45 272 -210 454 -522 575 l-71 27 -7 78 c-32 382 -302 705 -671
801 -90 23 -281 33 -358 19z"/>
<path d="M1510 610 l0 -310 -300 0 -300 0 0 -150 0 -150 1800 0 1800 0 0 150
0 150 -300 0 -300 0 0 310 0 310 -300 0 -300 0 0 -310 0 -310 -600 0 -600 0 0
310 0 310 -300 0 -300 0 0 -310z"/>
</g>
</svg>
