<?xml version="1.0" standalone="no"?>
<!DOCTYPE svg PUBLIC "-//W3C//DTD SVG 20010904//EN"
 "http://www.w3.org/TR/2001/REC-SVG-20010904/DTD/svg10.dtd">
<svg version="1.0" xmlns="http://www.w3.org/2000/svg"
 width="512.000000pt" height="512.000000pt" viewBox="0 0 512.000000 512.000000"
 preserveAspectRatio="xMidYMid meet">

<g transform="translate(0.000000,512.000000) scale(0.100000,-0.100000)"
fill="#B82A1D" stroke="none">
<path d="M492 3175 c-179 -39 -346 -172 -428 -342 -166 -342 6 -743 376 -875
l65 -23 2055 0 2055 0 73 27 c101 37 173 82 245 155 74 74 119 146 154 245 23
62 26 91 27 193 1 100 -3 132 -22 190 -65 195 -208 342 -404 413 l-73 27
-2030 2 c-1687 1 -2041 -1 -2093 -12z"/>
</g>
</svg>
