<?xml version="1.0" encoding="UTF-8"?>
<!DOCTYPE svg PUBLIC "-//W3C//DTD SVG 1.1//EN" "http://www.w3.org/Graphics/SVG/1.1/DTD/svg11.dtd">
<svg xmlns="http://www.w3.org/2000/svg" version="1.1" width="512px" height="512px" style="shape-rendering:geometricPrecision; text-rendering:geometricPrecision; image-rendering:optimizeQuality; fill-rule:evenodd; clip-rule:evenodd" xmlns:xlink="http://www.w3.org/1999/xlink">
<g><path style="opacity:0.992" fill="#76B947" d="M -0.5,403.5 C -0.5,386.167 -0.5,368.833 -0.5,351.5C 21.5276,351.88 43.5276,351.38 65.5,350C 87.8899,344.61 102.057,330.777 108,308.5C 109.123,291.203 109.623,273.87 109.5,256.5C 109.333,241.167 109.167,225.833 109,210.5C 104.396,183.896 88.8963,167.73 62.5,162C 41.5026,161.5 20.5026,161.333 -0.5,161.5C -0.5,144.167 -0.5,126.833 -0.5,109.5C 5.31951,85.5144 20.3195,70.681 44.5,65C 109.832,64.5 175.166,64.3333 240.5,64.5C 240.833,97.1735 240.5,129.84 239.5,162.5C 197.101,172.066 171.268,198.066 162,240.5C 157.364,282.388 172.531,314.888 207.5,338C 217.79,343.93 228.79,347.763 240.5,349.5C 240.5,382.5 240.5,415.5 240.5,448.5C 174.135,448.979 107.802,448.479 41.5,447C 19.4452,440.115 5.44523,425.615 -0.5,403.5 Z"/></g>
<g><path style="opacity:0.992" fill="#76B947" d="M 511.5,109.5 C 511.5,126.833 511.5,144.167 511.5,161.5C 490.497,161.333 469.497,161.5 448.5,162C 422.104,167.73 406.604,183.896 402,210.5C 401.833,225.833 401.667,241.167 401.5,256.5C 401.377,273.87 401.877,291.203 403,308.5C 408.943,330.777 423.11,344.61 445.5,350C 467.472,351.38 489.472,351.88 511.5,351.5C 511.5,368.833 511.5,386.167 511.5,403.5C 505.555,425.615 491.555,440.115 469.5,447C 403.198,448.479 336.865,448.979 270.5,448.5C 270.5,415.5 270.5,382.5 270.5,349.5C 313.436,340.397 339.603,314.397 349,271.5C 353.734,229.142 338.234,196.642 302.5,174C 292.784,168.484 282.451,164.651 271.5,162.5C 270.5,129.84 270.167,97.1735 270.5,64.5C 335.834,64.3333 401.168,64.5 466.5,65C 490.68,70.681 505.68,85.5144 511.5,109.5 Z"/></g>
<g><path style="opacity:0.983" fill="#76B947" d="M -0.5,190.5 C 19.8361,190.333 40.1694,190.5 60.5,191C 71.4728,194.114 77.9728,201.28 80,212.5C 80.6667,241.5 80.6667,270.5 80,299.5C 77.6167,313.214 69.45,320.714 55.5,322C 36.8363,322.5 18.1696,322.667 -0.5,322.5C -0.5,278.5 -0.5,234.5 -0.5,190.5 Z"/></g>
<g><path style="opacity:0.983" fill="#76B947" d="M 511.5,190.5 C 511.5,234.5 511.5,278.5 511.5,322.5C 492.83,322.667 474.164,322.5 455.5,322C 441.55,320.714 433.383,313.214 431,299.5C 430.333,270.5 430.333,241.5 431,212.5C 433.027,201.28 439.527,194.114 450.5,191C 470.831,190.5 491.164,190.333 511.5,190.5 Z"/></g>
<g><path style="opacity:0.979" fill="#76B947" d="M 237.5,192.5 C 238.5,192.5 239.5,192.5 240.5,192.5C 240.667,235.168 240.5,277.835 240,320.5C 199.577,305.995 183.91,277.662 193,235.5C 200.843,213.822 215.677,199.488 237.5,192.5 Z"/></g>
<g><path style="opacity:0.979" fill="#76B947" d="M 270.5,192.5 C 292.918,197.749 308.418,211.082 317,232.5C 326.675,264.314 318.508,290.481 292.5,311C 285.766,315.134 278.6,318.301 271,320.5C 270.5,277.835 270.333,235.168 270.5,192.5 Z"/></g>
</svg>
