<?xml version="1.0" standalone="no"?>
<!DOCTYPE svg PUBLIC "-//W3C//DTD SVG 20010904//EN"
 "http://www.w3.org/TR/2001/REC-SVG-20010904/DTD/svg10.dtd">
<svg version="1.0" xmlns="http://www.w3.org/2000/svg"
 width="512.000000pt" height="512.000000pt" viewBox="0 0 512.000000 512.000000"
 preserveAspectRatio="xMidYMid meet">

<g transform="translate(0.000000,512.000000) scale(0.100000,-0.100000)"
fill="#B82A1D" stroke="none">
<path d="M0 4970 l0 -149 1498 -4 c1461 -4 1500 -4 1607 -24 354 -67 633 -188
907 -394 107 -80 307 -280 387 -387 206 -274 327 -553 394 -907 20 -107 20
-146 24 -1607 l4 -1498 149 0 150 0 0 2560 0 2560 -2560 0 -2560 0 0 -150z"/>
<path d="M2845 4194 c-596 -48 -943 -186 -1020 -405 -13 -36 -15 -200 -15
-1165 l0 -1124 265 0 c146 0 265 -4 265 -8 0 -6 -503 -1393 -535 -1474 -7 -17
5 -18 153 -18 l160 0 54 148 55 147 833 0 833 0 55 -148 54 -147 160 0 c148 0
160 1 153 18 -32 81 -535 1468 -535 1474 0 4 119 8 265 8 l265 0 0 1124 c0
965 -2 1129 -15 1165 -68 194 -360 329 -831 387 -124 15 -516 26 -619 18z m65
-1144 l0 -350 -400 0 -400 0 0 350 0 350 400 0 400 0 0 -350z m1100 0 l0 -350
-400 0 -400 0 0 350 0 350 400 0 400 0 0 -350z m-1390 -734 c59 -39 85 -89 85
-166 0 -78 -26 -127 -88 -168 -56 -37 -153 -39 -210 -3 -76 47 -111 140 -88
229 14 51 75 117 123 131 53 16 135 6 178 -23z m1100 0 c59 -39 85 -89 85
-166 0 -78 -26 -127 -88 -168 -56 -37 -153 -39 -210 -3 -76 47 -111 140 -88
229 14 51 75 117 123 131 53 16 135 6 178 -23z m-212 -960 c29 -79 52 -146 52
-150 0 -3 -225 -6 -500 -6 -275 0 -500 3 -500 6 0 4 23 71 52 150 l52 144 396
0 396 0 52 -144z m216 -594 c27 -75 51 -143 54 -149 3 -10 -145 -13 -718 -13
-573 0 -721 3 -718 13 3 6 27 74 54 149 l49 138 615 0 615 0 49 -138z"/>
<path d="M0 750 l0 -750 755 0 755 0 0 750 0 750 -755 0 -755 0 0 -750z"/>
</g>
</svg>
