<?xml version="1.0" standalone="no"?>
<!DOCTYPE svg PUBLIC "-//W3C//DTD SVG 20010904//EN"
 "http://www.w3.org/TR/2001/REC-SVG-20010904/DTD/svg10.dtd">
<svg version="1.0" xmlns="http://www.w3.org/2000/svg"
 width="512.000000pt" height="512.000000pt" viewBox="0 0 512.000000 512.000000"
 preserveAspectRatio="xMidYMid meet">

<g transform="translate(0.000000,512.000000) scale(0.100000,-0.100000)"
fill="#48BCD1" stroke="none">
<path d="M501 4900 c-162 -38 -215 -256 -88 -365 22 -19 57 -40 76 -45 20 -5
140 -10 266 -10 l230 0 271 -1176 272 -1176 -51 -66 c-93 -124 -132 -240 -131
-392 3 -232 130 -433 341 -539 127 -63 73 -61 1358 -61 1110 0 1172 1 1210 19
72 32 125 113 125 191 0 78 -53 159 -125 191 -38 18 -99 19 -1173 19 -825 0
-1146 3 -1179 12 -168 42 -187 277 -28 349 38 18 96 19 1179 19 871 0 1148 3
1180 12 52 16 118 81 133 133 28 93 413 1848 413 1880 0 73 -50 149 -122 186
-36 18 -82 19 -1592 19 l-1556 0 -5 23 c-3 12 -37 159 -75 327 -39 168 -73
314 -76 324 -4 10 -24 39 -46 62 -65 70 -89 74 -457 73 -174 -1 -331 -5 -350
-9z"/>
<path d="M2144 840 c-50 -16 -125 -71 -161 -118 -154 -204 -1 -506 257 -506
121 0 242 78 291 186 35 80 34 193 -4 270 -31 62 -84 116 -149 149 -48 25
-180 36 -234 19z"/>
<path d="M3617 830 c-75 -29 -132 -82 -169 -157 -27 -56 -32 -77 -32 -137 1
-284 342 -428 541 -229 66 66 88 123 88 228 0 78 -4 97 -27 141 -36 68 -113
136 -178 157 -68 22 -162 21 -223 -3z"/>
</g>
</svg>
