<?xml version="1.0" standalone="no"?>
<!DOCTYPE svg PUBLIC "-//W3C//DTD SVG 20010904//EN"
 "http://www.w3.org/TR/2001/REC-SVG-20010904/DTD/svg10.dtd">
<svg version="1.0" xmlns="http://www.w3.org/2000/svg"
 width="512.000000pt" height="512.000000pt" viewBox="0 0 512.000000 512.000000"
 preserveAspectRatio="xMidYMid meet">

<g transform="translate(0.000000,512.000000) scale(0.100000,-0.100000)"
fill="#8D480B" stroke="none">
<path d="M2675 4656 c-96 -24 -135 -54 -337 -254 l-198 -196 100 -102 c88 -89
100 -105 100 -136 0 -45 -34 -78 -80 -78 -28 0 -47 14 -134 100 l-102 99 -627
-627 c-345 -345 -627 -630 -627 -635 0 -9 918 -9 1828 0 l682 6 -80 82 c-44
46 -81 91 -81 101 -4 64 22 98 76 98 32 0 47 -11 138 -102 l103 -103 190 193
c161 163 196 204 225 263 32 67 34 75 34 180 0 101 -2 115 -29 169 -31 62
-142 188 -187 212 -42 21 -107 17 -166 -10 -119 -56 -220 -40 -307 47 -80 81
-100 191 -52 293 55 119 46 160 -61 266 -133 131 -256 172 -408 134z m-70
-917 c89 -86 103 -114 83 -157 -20 -41 -59 -56 -100 -39 -44 19 -178 159 -178
185 0 32 20 69 44 80 47 23 66 14 151 -69z m351 -350 c91 -89 107 -123 79
-165 -19 -30 -60 -47 -89 -38 -27 9 -154 131 -172 166 -18 35 -9 72 23 98 46
36 69 27 159 -61z"/>
<path d="M725 2659 c-192 -32 -348 -176 -389 -359 -9 -39 -16 -115 -16 -175 0
-161 24 -197 153 -236 85 -25 129 -52 181 -109 62 -69 81 -121 81 -225 0 -79
-3 -97 -28 -145 -52 -101 -118 -152 -242 -189 -75 -22 -115 -53 -134 -104 -16
-43 -13 -233 4 -302 41 -156 153 -282 303 -339 l57 -21 1423 -3 1422 -2 0 159
c0 145 2 161 21 185 25 32 75 35 110 7 23 -19 24 -25 27 -185 l3 -166 342 0
c264 0 354 3 396 15 170 45 301 177 346 350 18 69 21 269 4 312 -17 45 -58 81
-113 99 -84 28 -120 50 -174 108 -62 69 -87 134 -86 231 1 150 105 285 251
324 52 14 101 55 119 98 17 40 19 220 3 295 -30 143 -130 271 -261 333 -101
48 -182 56 -533 53 l-290 -3 -3 -170 c-2 -157 -4 -171 -24 -192 -30 -32 -81
-31 -113 2 -25 24 -25 27 -25 195 l0 170 -1382 -1 c-761 -1 -1405 -5 -1433
-10z m2952 -631 c22 -20 23 -28 23 -162 0 -130 -2 -141 -22 -163 -27 -29 -77
-30 -109 -4 -23 19 -24 24 -24 166 0 142 1 147 24 166 31 25 79 24 108 -3z
m-2 -613 c24 -23 25 -29 25 -160 0 -75 -4 -145 -10 -155 -13 -25 -65 -41 -94
-30 -48 18 -56 45 -56 177 0 68 5 133 11 147 22 48 86 60 124 21z"/>
</g>
</svg>
