<?xml version="1.0" standalone="no"?>
<!DOCTYPE svg PUBLIC "-//W3C//DTD SVG 20010904//EN"
 "http://www.w3.org/TR/2001/REC-SVG-20010904/DTD/svg10.dtd">
<svg version="1.0" xmlns="http://www.w3.org/2000/svg"
 width="497.000000pt" height="500.000000pt" viewBox="0 0 497.000000 500.000000"
 preserveAspectRatio="xMidYMid meet">

<g transform="translate(0.000000,500.000000) scale(0.100000,-0.100000)"
fill="#000000" stroke="none">
<path d="M239 4182 l-41 -37 -28 -230 c-16 -127 -45 -365 -65 -530 -20 -165
-45 -365 -55 -445 -26 -197 -40 -331 -40 -381 0 -36 6 -47 39 -78 l39 -36 584
32 c320 17 618 32 660 34 69 2 80 5 101 28 31 33 47 64 47 92 0 18 -119 464
-327 1224 -57 210 -66 235 -93 262 -50 50 -61 53 -266 69 -110 8 -257 19 -329
24 -187 14 -180 15 -226 -28z"/>
<path d="M1293 4159 c-47 -14 -73 -52 -73 -109 0 -27 18 -115 40 -197 50 -181
211 -771 279 -1023 48 -177 52 -187 90 -222 32 -30 48 -38 78 -38 119 0 957
51 972 59 10 6 30 26 45 45 23 30 37 87 101 388 41 194 98 459 125 588 60 280
61 306 19 354 -16 19 -38 37 -47 40 -15 5 -329 31 -672 56 -69 5 -219 16 -335
25 -115 8 -244 18 -285 21 -41 3 -122 9 -180 15 -119 10 -114 10 -157 -2z
m929 -406 c9 -10 32 -57 53 -105 41 -98 41 -98 154 -98 80 0 111 -15 111 -53
0 -11 -29 -50 -65 -88 -39 -40 -65 -76 -65 -89 0 -12 12 -67 26 -123 28 -112
24 -142 -20 -153 -19 -4 -49 8 -124 50 -54 31 -103 56 -109 56 -6 0 -54 -25
-107 -55 -102 -59 -120 -64 -148 -38 -23 20 -23 46 1 141 10 43 22 89 25 105
6 24 -2 37 -64 102 -38 41 -70 80 -70 87 0 8 7 24 16 36 14 20 24 22 100 22
47 0 93 4 103 10 10 5 35 49 56 97 20 48 42 94 47 101 15 18 62 15 80 -5z"/>
<path d="M3885 3991 c-34 -15 -67 -52 -179 -201 -60 -80 -111 -147 -113 -149
-2 -3 -25 16 -51 41 -26 25 -57 51 -69 57 -30 15 -105 14 -253 -5 l-125 -16
-42 -41 -43 -42 -55 -265 c-31 -146 -71 -338 -90 -427 -19 -90 -35 -174 -35
-187 0 -36 17 -67 52 -95 l30 -25 422 22 c231 12 583 32 781 43 352 21 360 22
392 46 18 14 41 39 52 57 40 66 361 885 361 921 0 45 -21 87 -56 109 -15 11
-94 29 -193 46 -91 16 -229 40 -306 54 -388 70 -434 75 -480 57z"/>
<path d="M4005 2614 c-137 -7 -306 -16 -375 -20 l-125 -6 -42 -43 c-36 -35
-43 -49 -43 -81 0 -22 -5 -102 -10 -179 -5 -77 -18 -293 -30 -480 -11 -187
-24 -409 -30 -492 -5 -84 -8 -158 -6 -165 3 -7 7 -25 10 -40 13 -57 66 -83
354 -168 149 -44 289 -80 311 -80 33 0 49 7 80 35 l39 35 6 133 c4 72 13 267
20 433 11 240 17 307 30 335 9 20 76 98 147 175 72 76 140 153 150 169 25 40
24 116 -4 269 l-22 120 -43 33 c-51 38 -27 37 -417 17z"/>
<path d="M2835 2549 c-559 -28 -621 -34 -658 -59 -41 -28 -69 -66 -391 -520
-253 -357 -266 -377 -266 -420 0 -61 28 -104 91 -137 87 -48 111 -72 339 -348
122 -149 243 -291 268 -318 44 -44 49 -47 99 -47 39 0 58 5 78 23 14 12 97
141 183 287 110 185 167 271 189 286 24 16 77 28 210 49 234 35 246 39 281 80
41 46 35 -8 79 759 l17 308 -42 39 c-35 34 -47 39 -84 38 -24 -1 -200 -10
-393 -20z m-211 -505 c9 -3 16 -12 16 -18 0 -7 10 -33 23 -57 23 -43 25 -44
82 -49 84 -7 92 -26 36 -83 -39 -41 -42 -47 -36 -83 3 -21 11 -56 17 -78 11
-34 10 -40 -7 -52 -16 -12 -26 -9 -85 23 l-66 36 -65 -36 c-57 -32 -68 -35
-84 -23 -13 9 -16 20 -12 42 4 16 11 51 17 78 l10 50 -42 43 c-55 56 -47 77
35 81 61 3 64 6 92 72 25 58 36 67 69 54z"/>
<path d="M1585 2479 c-82 -5 -310 -18 -505 -29 -195 -11 -476 -27 -624 -35
-252 -14 -271 -16 -293 -37 -19 -18 -23 -32 -23 -79 0 -33 5 -61 13 -67 6 -5
272 -143 589 -306 546 -280 580 -296 631 -296 40 0 63 6 87 23 19 13 129 158
266 352 227 320 234 331 234 378 0 42 -4 53 -31 78 -29 27 -36 29 -113 28 -44
-1 -148 -6 -231 -10z"/>
<path d="M151 1935 c-28 -32 -31 -42 -31 -99 0 -63 6 -77 301 -718 303 -657
326 -700 391 -734 55 -29 120 -17 622 112 l491 127 43 43 c41 41 42 45 42 107
l0 64 -288 319 c-159 175 -311 339 -339 364 -45 41 -98 64 -554 248 -492 197
-506 202 -575 202 -70 0 -73 -1 -103 -35z"/>
</g>
</svg>
